<svg width="26" height="26" viewBox="0 0 26 26" fill="none" xmlns="http://www.w3.org/2000/svg">
<path fill-rule="evenodd" clip-rule="evenodd" d="M12.9848 0.255615C9.50849 0.255615 9.07222 0.270815 7.70687 0.332949C6.34419 0.39535 5.41405 0.611086 4.60017 0.927622C3.7583 1.25456 3.04416 1.6919 2.33268 2.40364C1.62068 3.11511 1.18334 3.82925 0.855334 4.67086C0.537997 5.485 0.321995 6.41541 0.260661 7.77756C0.199594 9.14291 0.183594 9.57945 0.183594 13.0557C0.183594 16.5321 0.199061 16.967 0.260928 18.3323C0.323595 19.695 0.539331 20.6252 0.855601 21.439C1.1828 22.2809 1.62014 22.9951 2.33188 23.7065C3.04309 24.4185 3.75723 24.8569 4.59857 25.1839C5.41298 25.5004 6.34339 25.7161 7.70581 25.7785C9.07115 25.8407 9.50716 25.8559 12.9832 25.8559C16.4598 25.8559 16.8947 25.8407 18.26 25.7785C19.6227 25.7161 20.5539 25.5004 21.3683 25.1839C22.21 24.8569 22.923 24.4185 23.6342 23.7065C24.3462 22.9951 24.7836 22.2809 25.1116 21.4393C25.4263 20.6252 25.6423 19.6948 25.7063 18.3326C25.7676 16.9673 25.7836 16.5321 25.7836 13.0557C25.7836 9.57945 25.7676 9.14317 25.7063 7.77783C25.6423 6.41515 25.4263 5.485 25.1116 4.67113C24.7836 3.82925 24.3462 3.11511 23.6342 2.40364C22.9222 1.69163 22.2102 1.25429 21.3675 0.927622C20.5515 0.611086 19.6209 0.39535 18.2582 0.332949C16.8928 0.270815 16.4582 0.255615 12.9808 0.255615H12.9848ZM12.5579 2.56218H12.5582L12.9848 2.56231C16.4024 2.56231 16.8075 2.57457 18.1571 2.63591C19.4051 2.69297 20.0825 2.90151 20.5337 3.07671C21.131 3.30871 21.5569 3.58605 22.0046 4.03405C22.4526 4.48206 22.73 4.90873 22.9625 5.50607C23.1377 5.95674 23.3465 6.63408 23.4033 7.88209C23.4646 9.23144 23.478 9.63678 23.478 13.0528C23.478 16.4689 23.4646 16.8742 23.4033 18.2235C23.3462 19.4715 23.1377 20.1489 22.9625 20.5996C22.7305 21.1969 22.4526 21.6222 22.0046 22.07C21.5566 22.518 21.1313 22.7953 20.5337 23.0273C20.083 23.2033 19.4051 23.4113 18.1571 23.4684C16.8078 23.5297 16.4024 23.5431 12.9848 23.5431C9.56689 23.5431 9.16182 23.5297 7.81247 23.4684C6.56446 23.4108 5.88712 23.2023 5.43565 23.0271C4.83831 22.795 4.41164 22.5177 3.96363 22.0697C3.51563 21.6217 3.23829 21.1961 3.00576 20.5985C2.83055 20.1478 2.62175 19.4705 2.56495 18.2225C2.50362 16.8731 2.49135 16.4678 2.49135 13.0496C2.49135 9.63145 2.50362 9.22824 2.56495 7.87889C2.62202 6.63088 2.83055 5.95354 3.00576 5.50234C3.23776 4.905 3.51563 4.47833 3.96363 4.03032C4.41164 3.58232 4.83831 3.30498 5.43565 3.07244C5.88685 2.89644 6.56446 2.68844 7.81247 2.63111C8.99329 2.57777 9.45089 2.56177 11.8365 2.55911V2.56231C12.0594 2.56196 12.2992 2.56206 12.5579 2.56218ZM18.2814 6.22314C18.2814 5.37487 18.9694 4.68766 19.8174 4.68766V4.68713C20.6654 4.68713 21.3534 5.37514 21.3534 6.22314C21.3534 7.07115 20.6654 7.75916 19.8174 7.75916C18.9694 7.75916 18.2814 7.07115 18.2814 6.22314ZM12.9845 6.48235C9.35448 6.48249 6.41139 9.42566 6.41139 13.0557C6.41139 16.6859 9.35462 19.6278 12.9848 19.6278C16.615 19.6278 19.5571 16.6859 19.5571 13.0557C19.5571 9.42558 16.6147 6.48235 12.9845 6.48235ZM17.2515 13.0557C17.2515 10.6992 15.3411 8.78904 12.9848 8.78904C10.6282 8.78904 8.71808 10.6992 8.71808 13.0557C8.71808 15.412 10.6282 17.3225 12.9848 17.3225C15.3411 17.3225 17.2515 15.412 17.2515 13.0557Z" fill="#212325"/>
</svg>
