<svg width="300" height="44" viewBox="0 0 300 44" fill="none" xmlns="http://www.w3.org/2000/svg">
<g clip-path="url(#clip0_4203_15704)">
<mask id="mask0_4203_15704" style="mask-type:alpha" maskUnits="userSpaceOnUse" x="0" y="0" width="34" height="43">
<path d="M0.614258 0.507568H33.4426V42.9835H0.614258V0.507568Z" fill="#292826"/>
</mask>
<g mask="url(#mask0_4203_15704)">
<path fill-rule="evenodd" clip-rule="evenodd" d="M31.7046 9.3188L24.6456 2.354H9.3609L2.26562 9.37761V34.2409L9.3609 41.2651H24.6456L31.7046 34.3172V9.3188ZM9.52712 12.3915L12.3837 9.56601H21.6388L24.4943 12.3915V31.2184L21.6388 34.0438H12.3837L9.52712 31.2184V12.3915Z" fill="#292826"/>
<path fill-rule="evenodd" clip-rule="evenodd" d="M8.69751 0.507568L0.614258 8.50203V34.9727L8.64302 43.0162H25.3638L33.4426 35.0108V8.49876L25.4183 0.507568H8.69751ZM1.34024 34.646V8.82438L9.0239 1.23122L25.0853 1.23013L32.6407 8.72528L32.6638 34.7005L25.0319 42.2523L9.0239 42.2506L1.34024 34.646Z" fill="#292826"/>
</g>
<path fill-rule="evenodd" clip-rule="evenodd" d="M23.3535 12.8972L21.0863 10.6533H12.9051L10.6699 12.8646V30.7653L12.8567 32.9286H21.186L23.3535 30.7821V12.8972ZM13.2216 11.3764H20.8122L22.622 13.1662V30.481L20.8794 32.2044H13.1522L11.4366 30.5066V13.1428L13.2216 11.3764Z" fill="#292826"/>
<path fill-rule="evenodd" clip-rule="evenodd" d="M44.2871 24.1865H300.276V23.447H44.2871V24.1865Z" fill="#292826"/>
<path fill-rule="evenodd" clip-rule="evenodd" d="M54.4336 5.99894L54.1937 4.35452H51.1505V14.9915L52.772 15.2289V16.239H47.0059V15.2289L48.6274 14.9915V4.35452H45.5842L45.3442 5.99894H44.2627V2.96875H55.5152V5.99894H54.4336Z" fill="#292826"/>
<path fill-rule="evenodd" clip-rule="evenodd" d="M62.7821 16.2388V15.2881L64.2836 15.0501V11.4253H60.2794V15.0501L61.781 15.2881V16.2388H56.3154V15.2881L57.8775 15.0501V7.02845L56.3154 6.79104V5.84033H61.781V6.79104L60.2794 7.02845V10.1577H64.2836V7.02845L62.7821 6.79104V5.84033H68.2477V6.79104L66.6862 7.02845V15.0501L68.2477 15.2881V16.2388H62.7821Z" fill="#292826"/>
<path fill-rule="evenodd" clip-rule="evenodd" d="M78.4788 16.2388H69.4092V15.2881L70.9712 15.0501V7.02845L69.4092 6.79104V5.84033H78.4788V8.59336H77.4578L77.2172 7.10795H73.3737V10.198H75.7763L76.0162 8.87052H76.9173V12.7131H76.0162L75.7763 11.3861H73.3737V14.9706H77.2172L77.4578 13.4852H78.4788V16.2388Z" fill="#292826"/>
<path fill-rule="evenodd" clip-rule="evenodd" d="M91.2507 4.17693C89.0282 4.17693 87.8872 5.9395 87.8872 9.58389C87.8872 13.2479 88.9886 15.0306 91.2105 15.0306C93.4336 15.0306 94.5741 13.2675 94.5741 9.62364C94.5741 5.9591 93.4732 4.17693 91.2507 4.17693ZM91.2303 16.4763C87.066 16.4763 85.2441 14.0205 85.2441 9.56374C85.2441 5.12764 87.0858 2.73071 91.2507 2.73071C95.4151 2.73071 97.2369 5.18644 97.2369 9.64324C97.2369 14.0799 95.3953 16.4763 91.2303 16.4763Z" fill="#292826"/>
<path fill-rule="evenodd" clip-rule="evenodd" d="M104.785 16.2388V15.2881L106.286 15.0501V11.4253H102.282V15.0501L103.784 15.2881V16.2388H98.3184V15.2881L99.8799 15.0501V7.02845L98.3184 6.79104V5.84033H103.784V6.79104L102.282 7.02845V10.1577H106.286V7.02845L104.785 6.79104V5.84033H110.251V6.79104L108.689 7.02845V15.0501L110.251 15.2881V16.2388H104.785Z" fill="#292826"/>
<path fill-rule="evenodd" clip-rule="evenodd" d="M111.552 16.2388V15.2881L113.113 15.0501V7.02845L111.552 6.79104V5.84033H117.078V6.79104L115.516 7.02845V15.0501L117.078 15.2881V16.2388H111.552Z" fill="#292826"/>
<path fill-rule="evenodd" clip-rule="evenodd" d="M123.023 7.02858C121.341 7.02858 120.441 8.23684 120.441 11.0296C120.441 13.842 121.302 15.0699 122.983 15.0699C124.665 15.0699 125.586 13.8622 125.586 11.0694C125.586 8.25699 124.705 7.02858 123.023 7.02858ZM123.004 16.4371C119.459 16.4371 117.919 14.4758 117.919 11.0296C117.919 7.58343 119.479 5.66187 123.023 5.66187C126.567 5.66187 128.109 7.62318 128.109 11.0694C128.109 14.5156 126.548 16.4371 123.004 16.4371Z" fill="#292826"/>
<path fill-rule="evenodd" clip-rule="evenodd" d="M139.059 16.4763C136.736 16.4763 134.874 15.684 134.874 15.684V12.852H136.016L136.276 14.6745C136.276 14.6745 137.136 14.9707 138.658 14.9707C140.22 14.9707 141.622 14.4561 141.622 12.7725C141.622 11.2479 140.54 11.0296 139.219 10.5939C137.116 9.90079 134.894 9.30619 134.894 6.4546C134.894 4.13663 136.356 2.73071 139.419 2.73071C140.82 2.73071 142.282 3.04762 143.423 3.48322V6.13715H142.282L142.023 4.43393C142.023 4.43393 140.82 4.17693 139.659 4.17693C138.498 4.17693 137.297 4.57278 137.297 6.09795C137.297 9.40529 144.023 7.22671 144.023 12.5155C144.023 15.0105 142.382 16.4763 139.059 16.4763Z" fill="#292826"/>
<path fill-rule="evenodd" clip-rule="evenodd" d="M153.514 8.71207L153.273 7.10795H150.951V15.0501L152.512 15.2881V16.2388H146.987V15.2881L148.549 15.0501V7.10795H146.226L145.986 8.71207H144.965V5.84033H154.534V8.71207H153.514Z" fill="#292826"/>
<path fill-rule="evenodd" clip-rule="evenodd" d="M159.718 7.84031L158.196 11.9606H161.241L159.718 7.84031ZM160.96 16.2388V15.2881L162.461 15.0501L161.721 13.1689H157.716L156.975 15.0501L158.476 15.2881V16.2388H153.892V15.2881L155.393 15.0501L158.998 5.84033H161.301L164.904 15.0501L166.405 15.2881V16.2388H160.96Z" fill="#292826"/>
<path fill-rule="evenodd" clip-rule="evenodd" d="M174.313 8.71207L174.072 7.10795H171.749V15.0501L173.31 15.2881V16.2388H167.785V15.2881L169.347 15.0501V7.10795H167.024L166.784 8.71207H165.763V5.84033H175.333V8.71207H174.313Z" fill="#292826"/>
<path fill-rule="evenodd" clip-rule="evenodd" d="M185.323 16.2388H176.255V15.2881L177.817 15.0501V7.02845L176.255 6.79104V5.84033H185.323V8.59336H184.302L184.062 7.10795H180.218V10.198H182.621L182.862 8.87052H183.762V12.7131H182.862L182.621 11.3861H180.218V14.9706H184.062L184.302 13.4852H185.323V16.2388Z" fill="#292826"/>
<path fill-rule="evenodd" clip-rule="evenodd" d="M203.602 4.21622V10.9899C203.602 13.2676 203.462 14.258 202.381 15.3274C201.6 16.0996 200.32 16.4764 198.416 16.4764C196.536 16.4764 195.134 15.9613 194.252 15.09C193.111 13.9613 193.231 12.2771 193.231 10.8118V4.21622L191.609 3.97881V2.96875H197.375V3.97881L195.753 4.21622V11.9804C195.753 14.1589 196.975 15.0307 198.857 15.0307C199.858 15.0307 200.678 14.8325 201.219 14.258C201.699 13.7631 201.961 12.9904 201.961 11.9804V4.21622L200.339 3.97881V2.96875H205.224V3.97881L203.602 4.21622Z" fill="#292826"/>
<path fill-rule="evenodd" clip-rule="evenodd" d="M216.235 7.02845V16.2388H214.353L209.007 8.81171V15.0501L210.569 15.2881V16.2388H205.863V15.2881L207.426 15.0501V7.02845L205.863 6.79104V5.84033H209.528L214.653 12.9309V7.02845L213.092 6.79104V5.84033H217.797V6.79104L216.235 7.02845Z" fill="#292826"/>
<path fill-rule="evenodd" clip-rule="evenodd" d="M219.037 16.2388V15.2881L220.598 15.0501V7.02845L219.037 6.79104V5.84033H224.563V6.79104L223.002 7.02845V15.0501L224.563 15.2881V16.2388H219.037Z" fill="#292826"/>
<path fill-rule="evenodd" clip-rule="evenodd" d="M236.295 7.02845L232.791 16.2388H230.468L226.966 7.02845L225.464 6.79104V5.84033H230.91V6.79104L229.408 7.02845L232.071 14.1588L234.713 7.02845L233.211 6.79104V5.84033H237.796V6.79104L236.295 7.02845Z" fill="#292826"/>
<path fill-rule="evenodd" clip-rule="evenodd" d="M247.687 16.2388H238.617V15.2881L240.179 15.0501V7.02845L238.617 6.79104V5.84033H247.687V8.59336H246.666L246.426 7.10795H242.581V10.198H244.984L245.224 8.87052H246.125V12.7131H245.224L244.984 11.3861H242.581V14.9706H246.426L246.666 13.4852H247.687V16.2388Z" fill="#292826"/>
<path fill-rule="evenodd" clip-rule="evenodd" d="M255.775 7.42485C255.374 7.00885 254.513 7.04859 253.972 7.04859H253.272V10.3755H253.692C254.372 10.3755 255.314 10.455 255.815 9.90073C256.134 9.54407 256.215 9.12861 256.215 8.67286C256.215 8.21711 256.115 7.7815 255.775 7.42485ZM256.895 16.2388L255.915 13.862C255.254 12.277 254.853 11.5446 253.452 11.5446H253.272V15.0501L254.773 15.2881V16.2388H249.308V15.2881L250.87 15.0501V7.02845L249.308 6.79104V5.84033H254.613C255.695 5.84033 256.955 5.89968 257.777 6.65274C258.318 7.14769 258.617 7.82071 258.617 8.59336C258.617 9.80108 257.816 10.8901 256.714 11.2282C257.596 11.8811 258.357 14.0205 258.798 15.0501L260.3 15.2881V16.2388H256.895Z" fill="#292826"/>
<path fill-rule="evenodd" clip-rule="evenodd" d="M265.044 16.4371C263.082 16.4371 261.44 15.7832 261.44 15.7832V13.09H262.521L262.782 14.7927C262.782 14.7927 263.542 15.0105 264.724 15.0105C266.005 15.0105 266.987 14.5951 266.987 13.4658C266.987 12.6735 266.546 12.3963 265.885 12.1785C263.943 11.5246 261.461 11.248 261.461 8.65285C261.461 6.79117 262.762 5.66187 265.345 5.66187C266.526 5.66187 267.746 5.89981 268.808 6.27607V8.8505H267.727L267.467 7.22678C267.467 7.22678 266.586 7.02858 265.604 7.02858C264.624 7.02858 263.763 7.36563 263.763 8.37569C263.763 10.6931 269.308 9.1478 269.308 13.2675C269.308 15.2882 267.826 16.4371 265.044 16.4371Z" fill="#292826"/>
<path fill-rule="evenodd" clip-rule="evenodd" d="M270.71 16.2388V15.2881L272.272 15.0501V7.02845L270.71 6.79104V5.84033H276.235V6.79104L274.673 7.02845V15.0501L276.235 15.2881V16.2388H270.71Z" fill="#292826"/>
<path fill-rule="evenodd" clip-rule="evenodd" d="M285.925 8.71207L285.685 7.10795H283.363V15.0501L284.924 15.2881V16.2388H279.399V15.2881L280.96 15.0501V7.10795H278.638L278.397 8.71207H277.377V5.84033H286.946V8.71207H285.925Z" fill="#292826"/>
<path fill-rule="evenodd" clip-rule="evenodd" d="M297.996 7.02845L294.933 11.7232V15.0501L296.496 15.2881V16.2388H290.969V15.2881L292.531 15.0501V11.7232L289.429 7.02845L287.927 6.79104V5.84033H293.492V6.79104L291.99 7.02845L294.153 10.3957L296.296 7.02845L294.854 6.79104V5.84033H299.498V6.79104L297.996 7.02845Z" fill="#292826"/>
<path d="M52.8403 39.7298L55.1633 31.6177H54.0322L52.2444 38.3798L50.3836 31.6177H49.5444L47.6836 38.3798L45.8836 31.6177H44.7646L47.0755 39.7298H48.1701L49.9579 33.1866L51.7457 39.7298H52.8403Z" fill="#292826"/>
<path d="M61.5948 39.7298V38.8298H57.2894V36.0325H61.5097V35.1325H57.2894V32.5177H61.5948V31.6177H56.2799V39.7298H61.5948Z" fill="#292826"/>
<path d="M70.0394 39.7298L66.8773 35.5582L69.857 31.6177H68.6165L66.2205 34.8528L63.8124 31.6177H62.584L65.5638 35.5704L62.4016 39.7298H63.63L66.2205 36.2758L68.8111 39.7298H70.0394Z" fill="#292826"/>
<path d="M77.8517 39.7298V31.6177H76.8423V37.9542L72.172 31.6177H71.1382V39.7298H72.1477V33.2596L76.8787 39.7298H77.8517Z" fill="#292826"/>
<path d="M85.064 39.7298V38.8298H80.7586V36.0325H84.9788V35.1325H80.7586V32.5177H85.064V31.6177H79.7491V39.7298H85.064Z" fill="#292826"/>
<path d="M92.56 39.7298L90.3708 36.4217C91.4775 36.3244 92.487 35.5217 92.487 34.0623C92.487 32.5663 91.4167 31.6177 89.9329 31.6177H86.6735V39.7298H87.6829V36.5069H89.3127L91.3681 39.7298H92.56ZM89.8113 35.619H87.6829V32.5177H89.8113C90.7721 32.5177 91.441 33.1379 91.441 34.0623C91.441 34.9744 90.7721 35.619 89.8113 35.619Z" fill="#292826"/>
<path d="M105.174 39.7298V31.6177H103.727L101.209 37.869L98.6795 31.6177H97.2322V39.7298H98.2417V32.9069L101.002 39.7298H101.416L104.165 32.9069V39.7298H105.174Z" fill="#292826"/>
<path d="M112.381 39.7298V38.8298H108.076V36.0325H112.296V35.1325H108.076V32.5177H112.381V31.6177H107.066V39.7298H112.381Z" fill="#292826"/>
<path d="M116.764 39.7298C119.294 39.7298 120.923 37.9906 120.923 35.6798C120.923 33.3812 119.294 31.6177 116.764 31.6177H113.991V39.7298H116.764ZM116.764 38.8298H115V32.5177H116.764C118.771 32.5177 119.877 33.9285 119.877 35.6798C119.877 37.419 118.734 38.8298 116.764 38.8298Z" fill="#292826"/>
<path d="M123.516 39.7298V31.6177H122.507V39.7298H123.516Z" fill="#292826"/>
<path d="M129.26 39.8758C130.695 39.8758 131.668 39.1947 132.349 38.2582L131.498 37.7961C131.036 38.4771 130.184 38.9758 129.26 38.9758C127.484 38.9758 126.134 37.6015 126.134 35.6798C126.134 33.7339 127.484 32.3839 129.26 32.3839C130.184 32.3839 131.036 32.8704 131.498 33.5636L132.337 33.0893C131.692 32.165 130.695 31.4839 129.26 31.4839C126.925 31.4839 125.088 33.1866 125.088 35.6798C125.088 38.1731 126.925 39.8758 129.26 39.8758Z" fill="#292826"/>
<path d="M140.545 39.7298L137.285 31.6177H136.032L132.761 39.7298H133.916L134.634 37.9177H138.672L139.389 39.7298H140.545ZM138.38 37.0298H134.938L136.653 32.6515L138.38 37.0298Z" fill="#292826"/>
<path d="M146.251 39.7298V38.8298H142.481V31.6177H141.471V39.7298H146.251Z" fill="#292826"/>
<path d="M154.594 39.8758C156.029 39.8758 157.002 39.1947 157.683 38.2582L156.832 37.7961C156.369 38.4771 155.518 38.9758 154.594 38.9758C152.818 38.9758 151.468 37.6015 151.468 35.6798C151.468 33.7339 152.818 32.3839 154.594 32.3839C155.518 32.3839 156.369 32.8704 156.832 33.5636L157.671 33.0893C157.026 32.165 156.029 31.4839 154.594 31.4839C152.259 31.4839 150.422 33.1866 150.422 35.6798C150.422 38.1731 152.259 39.8758 154.594 39.8758Z" fill="#292826"/>
<path d="M164.284 39.7298V38.8298H159.979V36.0325H164.199V35.1325H159.979V32.5177H164.284V31.6177H158.969V39.7298H164.284Z" fill="#292826"/>
<path d="M172.607 39.7298V31.6177H171.598V37.9542L166.928 31.6177H165.894V39.7298H166.903V33.2596L171.634 39.7298H172.607Z" fill="#292826"/>
<path d="M177.521 39.7298V32.5177H180.099V31.6177H173.945V32.5177H176.511V39.7298H177.521Z" fill="#292826"/>
<path d="M186.756 39.7298V38.8298H182.45V36.0325H186.671V35.1325H182.45V32.5177H186.756V31.6177H181.441V39.7298H186.756Z" fill="#292826"/>
<path d="M194.252 39.7298L192.063 36.4217C193.169 36.3244 194.179 35.5217 194.179 34.0623C194.179 32.5663 193.109 31.6177 191.625 31.6177H188.365V39.7298H189.375V36.5069H191.004L193.06 39.7298H194.252ZM191.503 35.619H189.375V32.5177H191.503C192.464 32.5177 193.133 33.1379 193.133 34.0623C193.133 34.9744 192.464 35.619 191.503 35.619Z" fill="#292826"/>
</g>
<defs>
<clipPath id="clip0_4203_15704">
<rect width="300" height="43.7838" fill="white"/>
</clipPath>
</defs>
</svg>
