<svg width="301" height="44" viewBox="0 0 301 44" fill="none" xmlns="http://www.w3.org/2000/svg">
<g clip-path="url(#clip0_4203_15737)">
<mask id="mask0_4203_15737" style="mask-type:alpha" maskUnits="userSpaceOnUse" x="0" y="0" width="34" height="43">
<path d="M0.614258 0.507568H33.4398V42.9799H0.614258V0.507568Z" fill="white"/>
</mask>
<g mask="url(#mask0_4203_15737)">
<path fill-rule="evenodd" clip-rule="evenodd" d="M31.704 9.3182L24.6457 2.354H9.36224L2.26758 9.377V34.2382L9.36224 41.2617H24.6457L31.704 34.3144V9.3182ZM9.52844 12.3906L12.3848 9.56539H21.6391L24.4943 12.3906V31.2159L21.6391 34.0411H12.3848L9.52844 31.2159V12.3906Z" fill="#212325"/>
<path fill-rule="evenodd" clip-rule="evenodd" d="M8.69681 0.507568L0.614258 8.50134V34.9698L8.64232 43.0125H25.3616L33.4398 35.0079V8.49807L25.4161 0.507568H8.69681ZM1.34018 34.6431V8.82366L9.02317 1.23116L25.0832 1.23007L32.6379 8.72457L32.661 34.6975L25.0298 42.2487L9.02317 42.247L1.34018 34.6431Z" fill="#212325"/>
</g>
<path fill-rule="evenodd" clip-rule="evenodd" d="M23.3524 12.8961L21.0854 10.6523H12.9049L10.6699 12.8634V30.7625L12.8565 32.9257H21.1851L23.3524 30.7794V12.8961ZM13.2214 11.3754H20.8114L22.6209 13.165V30.4783L20.8785 32.2016H13.152L11.4366 30.5039V13.1416L13.2214 11.3754Z" fill="#212325"/>
<path fill-rule="evenodd" clip-rule="evenodd" d="M44.2832 24.1844H300.25V23.4451H44.2832V24.1844Z" fill="#212325"/>
<path fill-rule="evenodd" clip-rule="evenodd" d="M54.4279 5.99819L54.1879 4.35391H51.145V14.99L52.7663 15.2273V16.2373H47.0008V15.2273L48.6221 14.99V4.35391H45.5792L45.3393 5.99819H44.2578V2.96826H55.5093V5.99819H54.4279Z" fill="#212325"/>
<path fill-rule="evenodd" clip-rule="evenodd" d="M62.7777 16.2374V15.2868L64.2791 15.0489V11.4244H60.2752V15.0489L61.7766 15.2868V16.2374H56.3115V15.2868L57.8734 15.0489V7.02786L56.3115 6.79047V5.83984H61.7766V6.79047L60.2752 7.02786V10.1569H64.2791V7.02786L62.7777 6.79047V5.83984H68.2427V6.79047L66.6814 7.02786V15.0489L68.2427 15.2868V16.2374H62.7777Z" fill="#212325"/>
<path fill-rule="evenodd" clip-rule="evenodd" d="M78.4731 16.2374H69.4043V15.2868L70.9662 15.0489V7.02786L69.4043 6.79047V5.83984H78.4731V8.59264H77.4522L77.2117 7.10735H73.3685V10.1972H75.7708L76.0108 8.86977H76.9117V12.712H76.0108L75.7708 11.3852H73.3685V14.9694H77.2117L77.4522 13.4841H78.4731V16.2374Z" fill="#212325"/>
<path fill-rule="evenodd" clip-rule="evenodd" d="M91.2443 4.17631C89.022 4.17631 87.8811 5.93873 87.8811 9.58281C87.8811 13.2465 88.9824 15.029 91.2042 15.029C93.4271 15.029 94.5674 13.2661 94.5674 9.62255C94.5674 5.95833 93.4667 4.17631 91.2443 4.17631ZM91.224 16.4746C87.06 16.4746 85.2383 14.0191 85.2383 9.56266C85.2383 5.12694 87.0798 2.73022 91.2443 2.73022C95.4083 2.73022 97.23 5.18574 97.23 9.64215C97.23 14.0784 95.3885 16.4746 91.224 16.4746Z" fill="#212325"/>
<path fill-rule="evenodd" clip-rule="evenodd" d="M104.775 16.2374V15.2868L106.276 15.0489V11.4244H102.272V15.0489L103.774 15.2868V16.2374H98.3086V15.2868L99.87 15.0489V7.02786L98.3086 6.79047V5.83984H103.774V6.79047L102.272 7.02786V10.1569H106.276V7.02786L104.775 6.79047V5.83984H110.24V6.79047L108.678 7.02786V15.0489L110.24 15.2868V16.2374H104.775Z" fill="#212325"/>
<path fill-rule="evenodd" clip-rule="evenodd" d="M111.543 16.2374V15.2868L113.104 15.0489V7.02786L111.543 6.79047V5.83984H117.069V6.79047L115.507 7.02786V15.0489L117.069 15.2868V16.2374H111.543Z" fill="#212325"/>
<path fill-rule="evenodd" clip-rule="evenodd" d="M123.013 7.02797C121.331 7.02797 120.431 8.23613 120.431 11.0287C120.431 13.8408 121.292 15.0686 122.973 15.0686C124.654 15.0686 125.575 13.861 125.575 11.0684C125.575 8.25628 124.695 7.02797 123.013 7.02797ZM122.994 16.4357C119.449 16.4357 117.909 14.4746 117.909 11.0287C117.909 7.58278 119.469 5.66138 123.013 5.66138C126.556 5.66138 128.099 7.62252 128.099 11.0684C128.099 14.5143 126.537 16.4357 122.994 16.4357Z" fill="#212325"/>
<path fill-rule="evenodd" clip-rule="evenodd" d="M139.046 16.4746C136.723 16.4746 134.861 15.6824 134.861 15.6824V12.8507H136.003L136.263 14.673C136.263 14.673 137.123 14.9692 138.645 14.9692C140.207 14.9692 141.609 14.4546 141.609 12.7712C141.609 11.2467 140.527 11.0283 139.206 10.5928C137.103 9.89968 134.881 9.30513 134.881 6.45379C134.881 4.13602 136.343 2.73022 139.406 2.73022C140.807 2.73022 142.269 3.0471 143.41 3.48267V6.13637H142.269L142.009 4.4333C142.009 4.4333 140.807 4.17631 139.646 4.17631C138.485 4.17631 137.285 4.57213 137.285 6.09717C137.285 9.40422 144.01 7.22584 144.01 12.5142C144.01 15.0089 142.369 16.4746 139.046 16.4746Z" fill="#212325"/>
<path fill-rule="evenodd" clip-rule="evenodd" d="M153.499 8.71133L153.259 7.10735H150.937V15.0489L152.498 15.2868V16.2374H146.973V15.2868L148.535 15.0489V7.10735H146.212L145.973 8.71133H144.951V5.83984H154.52V8.71133H153.499Z" fill="#212325"/>
<path fill-rule="evenodd" clip-rule="evenodd" d="M159.705 7.83965L158.183 11.9596H161.227L159.705 7.83965ZM160.947 16.2374V15.2868L162.448 15.0489L161.708 13.1677H157.703L156.962 15.0489L158.463 15.2868V16.2374H153.879V15.2868L155.38 15.0489L158.985 5.83984H161.287L164.89 15.0489L166.391 15.2868V16.2374H160.947Z" fill="#212325"/>
<path fill-rule="evenodd" clip-rule="evenodd" d="M174.298 8.71133L174.057 7.10735H171.735V15.0489L173.296 15.2868V16.2374H167.771V15.2868L169.333 15.0489V7.10735H167.01L166.77 8.71133H165.749V5.83984H175.318V8.71133H174.298Z" fill="#212325"/>
<path fill-rule="evenodd" clip-rule="evenodd" d="M185.306 16.2374H176.238V15.2868L177.8 15.0489V7.02786L176.238 6.79047V5.83984H185.306V8.59264H184.285L184.045 7.10735H180.201V10.1972H182.604L182.845 8.86977H183.745V12.712H182.845L182.604 11.3852H180.201V14.9694H184.045L184.285 13.4841H185.306V16.2374Z" fill="#212325"/>
<path fill-rule="evenodd" clip-rule="evenodd" d="M203.586 4.21562V10.9887C203.586 13.2662 203.446 14.2566 202.366 15.3259C201.584 16.0979 200.304 16.4747 198.401 16.4747C196.52 16.4747 195.119 15.9596 194.237 15.0885C193.097 13.9598 193.216 12.2758 193.216 10.8107V4.21562L191.595 3.97824V2.96826H197.36V3.97824L195.738 4.21562V11.9791C195.738 14.1575 196.96 15.0292 198.842 15.0292C199.843 15.0292 200.663 14.831 201.203 14.2566C201.684 13.7617 201.945 12.9891 201.945 11.9791V4.21562L200.323 3.97824V2.96826H205.208V3.97824L203.586 4.21562Z" fill="#212325"/>
<path fill-rule="evenodd" clip-rule="evenodd" d="M216.217 7.02786V16.2374H214.334L208.989 8.81097V15.0489L210.551 15.2868V16.2374H205.846V15.2868L207.409 15.0489V7.02786L205.846 6.79047V5.83984H209.51L214.634 12.9298V7.02786L213.074 6.79047V5.83984H217.778V6.79047L216.217 7.02786Z" fill="#212325"/>
<path fill-rule="evenodd" clip-rule="evenodd" d="M219.018 16.2374V15.2868L220.578 15.0489V7.02786L219.018 6.79047V5.83984H224.543V6.79047L222.982 7.02786V15.0489L224.543 15.2868V16.2374H219.018Z" fill="#212325"/>
<path fill-rule="evenodd" clip-rule="evenodd" d="M236.273 7.02786L232.77 16.2374H230.447L226.945 7.02786L225.443 6.79047V5.83984H230.889V6.79047L229.387 7.02786L232.05 14.1576L234.692 7.02786L233.19 6.79047V5.83984H237.775V6.79047L236.273 7.02786Z" fill="#212325"/>
<path fill-rule="evenodd" clip-rule="evenodd" d="M247.665 16.2374H238.596V15.2868L240.157 15.0489V7.02786L238.596 6.79047V5.83984H247.665V8.59264H246.644L246.404 7.10735H242.559V10.1972H244.962L245.202 8.86977H246.103V12.712H245.202L244.962 11.3852H242.559V14.9694H246.404L246.644 13.4841H247.665V16.2374Z" fill="#212325"/>
<path fill-rule="evenodd" clip-rule="evenodd" d="M255.754 7.42422C255.353 7.00826 254.492 7.048 253.951 7.048H253.251V10.3747H253.671C254.351 10.3747 255.293 10.4541 255.794 9.89989C256.113 9.54327 256.194 9.12784 256.194 8.67213C256.194 8.21641 256.094 7.78085 255.754 7.42422ZM256.874 16.2374L255.894 13.8608C255.233 12.2759 254.832 11.5436 253.431 11.5436H253.251V15.0489L254.752 15.2868V16.2374H249.287V15.2868L250.849 15.0489V7.02786L249.287 6.79047V5.83984H254.592C255.673 5.83984 256.934 5.89919 257.755 6.65218C258.296 7.14709 258.596 7.82005 258.596 8.59264C258.596 9.80025 257.795 10.8892 256.693 11.2273C257.575 11.8801 258.336 14.0193 258.777 15.0489L260.278 15.2868V16.2374H256.874Z" fill="#212325"/>
<path fill-rule="evenodd" clip-rule="evenodd" d="M265.019 16.4357C263.058 16.4357 261.416 15.7818 261.416 15.7818V13.0889H262.496L262.758 14.7914C262.758 14.7914 263.518 15.0092 264.699 15.0092C265.98 15.0092 266.962 14.5938 266.962 13.4646C266.962 12.6724 266.521 12.3953 265.86 12.1775C263.918 11.5236 261.437 11.247 261.437 8.6521C261.437 6.79059 262.737 5.66138 265.32 5.66138C266.501 5.66138 267.721 5.89931 268.783 6.27553V8.84974H267.702L267.442 7.22616C267.442 7.22616 266.561 7.02797 265.579 7.02797C264.599 7.02797 263.738 7.36499 263.738 8.37497C263.738 10.6922 269.283 9.14701 269.283 13.2664C269.283 15.2869 267.801 16.4357 265.019 16.4357Z" fill="#212325"/>
<path fill-rule="evenodd" clip-rule="evenodd" d="M270.687 16.2374V15.2868L272.248 15.0489V7.02786L270.687 6.79047V5.83984H276.212V6.79047L274.65 7.02786V15.0489L276.212 15.2868V16.2374H270.687Z" fill="#212325"/>
<path fill-rule="evenodd" clip-rule="evenodd" d="M285.9 8.71133L285.66 7.10735H283.338V15.0489L284.899 15.2868V16.2374H279.374V15.2868L280.935 15.0489V7.10735H278.613L278.372 8.71133H277.353V5.83984H286.921V8.71133H285.9Z" fill="#212325"/>
<path fill-rule="evenodd" clip-rule="evenodd" d="M297.97 7.02786L294.907 11.7222V15.0489L296.47 15.2868V16.2374H290.944V15.2868L292.506 15.0489V11.7222L289.403 7.02786L287.901 6.79047V5.83984H293.467V6.79047L291.965 7.02786L294.128 10.3948L296.27 7.02786L294.828 6.79047V5.83984H299.472V6.79047L297.97 7.02786Z" fill="#212325"/>
<path d="M49.2372 39.8724C51.633 39.8724 53.2747 38.0725 53.2747 35.6768C53.2747 33.281 51.633 31.4812 49.2372 31.4812C46.8415 31.4812 45.2119 33.281 45.2119 35.6768C45.2119 38.0725 46.8415 39.8724 49.2372 39.8724ZM49.2372 38.9724C47.4131 38.9724 46.2578 37.5618 46.2578 35.6768C46.2578 33.7797 47.4131 32.3811 49.2372 32.3811C51.0492 32.3811 52.2289 33.7797 52.2289 35.6768C52.2289 37.5618 51.0492 38.9724 49.2372 38.9724Z" fill="#212325"/>
<path d="M55.7675 39.7264V36.0295H59.9874V35.1295H55.7675V32.5149H60.0726V31.615H54.7582V39.7264H55.7675Z" fill="#212325"/>
<path d="M62.3846 39.7264V36.0295H66.6045V35.1295H62.3846V32.5149H66.6896V31.615H61.3752V39.7264H62.3846Z" fill="#212325"/>
<path d="M69.0016 39.7264V31.615H67.9922V39.7264H69.0016Z" fill="#212325"/>
<path d="M74.6637 39.8724C76.0987 39.8724 77.0716 39.1913 77.7526 38.2549L76.9014 37.7928C76.4392 38.4738 75.588 38.9724 74.6637 38.9724C72.8882 38.9724 71.5383 37.5982 71.5383 35.6768C71.5383 33.731 72.8882 32.3811 74.6637 32.3811C75.588 32.3811 76.4392 32.8676 76.9014 33.5608L77.7405 33.0865C77.0959 32.1622 76.0987 31.4812 74.6637 31.4812C72.3288 31.4812 70.4925 33.1838 70.4925 35.6768C70.4925 38.1698 72.3288 39.8724 74.6637 39.8724Z" fill="#212325"/>
<path d="M84.2724 39.7264V38.8265H79.9674V36.0295H84.1873V35.1295H79.9674V32.5149H84.2724V31.615H78.958V39.7264H84.2724Z" fill="#212325"/>
<path d="M92.5637 39.8724C94.9595 39.8724 96.6012 38.0725 96.6012 35.6768C96.6012 33.281 94.9595 31.4812 92.5637 31.4812C90.168 31.4812 88.5384 33.281 88.5384 35.6768C88.5384 38.0725 90.168 39.8724 92.5637 39.8724ZM92.5637 38.9724C90.7396 38.9724 89.5843 37.5618 89.5843 35.6768C89.5843 33.7797 90.7396 32.3811 92.5637 32.3811C94.3757 32.3811 95.5554 33.7797 95.5554 35.6768C95.5554 37.5618 94.3757 38.9724 92.5637 38.9724Z" fill="#212325"/>
<path d="M99.094 39.7264V36.0295H103.314V35.1295H99.094V32.5149H103.399V31.615H98.0847V39.7264H99.094Z" fill="#212325"/>
<path d="M114.712 39.7264L111.453 31.615H110.2L106.929 39.7264H108.084L108.801 37.9144H112.839L113.556 39.7264H114.712ZM112.547 37.0267H109.106L110.82 32.6487L112.547 37.0267Z" fill="#212325"/>
<path d="M119.083 39.8724C120.518 39.8724 121.491 39.1913 122.172 38.2549L121.32 37.7928C120.858 38.4738 120.007 38.9724 119.083 38.9724C117.307 38.9724 115.957 37.5982 115.957 35.6768C115.957 33.731 117.307 32.3811 119.083 32.3811C120.007 32.3811 120.858 32.8676 121.32 33.5608L122.16 33.0865C121.515 32.1622 120.518 31.4812 119.083 31.4812C116.748 31.4812 114.912 33.1838 114.912 35.6768C114.912 38.1698 116.748 39.8724 119.083 39.8724Z" fill="#212325"/>
<path d="M130.285 39.7264L127.026 31.615H125.774L122.502 39.7264H123.658L124.375 37.9144H128.413L129.13 39.7264H130.285ZM128.121 37.0267H124.679L126.394 32.6487L128.121 37.0267Z" fill="#212325"/>
<path d="M134.038 39.7264C136.567 39.7264 138.197 37.9874 138.197 35.6768C138.197 33.3783 136.567 31.615 134.038 31.615H131.265V39.7264H134.038ZM134.038 38.8265H132.274V32.5149H134.038C136.044 32.5149 137.151 33.9256 137.151 35.6768C137.151 37.4158 136.008 38.8265 134.038 38.8265Z" fill="#212325"/>
<path d="M145.013 39.7264V38.8265H140.708V36.0295H144.928V35.1295H140.708V32.5149H145.013V31.615H139.699V39.7264H145.013Z" fill="#212325"/>
<path d="M154.483 39.7264V31.615H153.036L150.518 37.8658L147.989 31.615H146.542V39.7264H147.551V32.9041L150.312 39.7264H150.725L153.473 32.9041V39.7264H154.483Z" fill="#212325"/>
<path d="M157.303 39.7264V31.615H156.294V39.7264H157.303Z" fill="#212325"/>
<path d="M162.965 39.8724C164.4 39.8724 165.373 39.1913 166.054 38.2549L165.203 37.7928C164.741 38.4738 163.89 38.9724 162.965 38.9724C161.19 38.9724 159.84 37.5982 159.84 35.6768C159.84 33.731 161.19 32.3811 162.965 32.3811C163.89 32.3811 164.741 32.8676 165.203 33.5608L166.042 33.0865C165.398 32.1622 164.4 31.4812 162.965 31.4812C160.63 31.4812 158.794 33.1838 158.794 35.6768C158.794 38.1698 160.63 39.8724 162.965 39.8724Z" fill="#212325"/>
<path d="M177.27 39.7264L174.011 31.615H172.758L169.487 39.7264H170.642L171.359 37.9144H175.397L176.114 39.7264H177.27ZM175.105 37.0267H171.664L173.378 32.6487L175.105 37.0267Z" fill="#212325"/>
<path d="M179.259 39.7264V36.0295H183.478V35.1295H179.259V32.5149H183.564V31.615H178.249V39.7264H179.259Z" fill="#212325"/>
<path d="M185.876 39.7264V36.0295H190.095V35.1295H185.876V32.5149H190.181V31.615H184.866V39.7264H185.876Z" fill="#212325"/>
<path d="M197.988 39.7264L194.729 31.615H193.476L190.205 39.7264H191.36L192.078 37.9144H196.115L196.833 39.7264H197.988ZM195.823 37.0267H192.382L194.096 32.6487L195.823 37.0267Z" fill="#212325"/>
<path d="M199.977 39.7264V31.615H198.967V39.7264H199.977Z" fill="#212325"/>
<path d="M207.682 39.7264L205.493 36.4186C206.599 36.3213 207.609 35.5187 207.609 34.0594C207.609 32.5635 206.539 31.615 205.055 31.615H201.796V39.7264H202.805V36.5037H204.435L206.49 39.7264H207.682ZM204.933 35.616H202.805V32.5149H204.933C205.894 32.5149 206.563 33.1351 206.563 34.0594C206.563 34.9714 205.894 35.616 204.933 35.616Z" fill="#212325"/>
<path d="M211.752 39.8724C213.941 39.8724 214.744 38.6563 214.744 37.4888C214.744 34.4607 209.94 35.5065 209.94 33.6824C209.94 32.9162 210.646 32.3933 211.606 32.3933C212.494 32.3933 213.345 32.6852 213.953 33.3662L214.561 32.6243C213.88 31.9068 212.92 31.4812 211.691 31.4812C210.086 31.4812 208.894 32.4054 208.894 33.7432C208.894 36.6375 213.698 35.47 213.698 37.5618C213.698 38.1941 213.236 38.9724 211.789 38.9724C210.646 38.9724 209.77 38.413 209.247 37.805L208.639 38.5833C209.308 39.3373 210.354 39.8724 211.752 39.8724Z" fill="#212325"/>
</g>
<defs>
<clipPath id="clip0_4203_15737">
<rect width="300.785" height="43.78" fill="white"/>
</clipPath>
</defs>
</svg>
