<svg width="300" height="44" viewBox="0 0 300 44" fill="none" xmlns="http://www.w3.org/2000/svg">
<g clip-path="url(#clip0_4203_15673)">
<mask id="mask0_4203_15673" style="mask-type:alpha" maskUnits="userSpaceOnUse" x="0" y="0" width="34" height="43">
<path d="M0.614258 0.507568H33.4426V42.9835H0.614258V0.507568Z" fill="#292826"/>
</mask>
<g mask="url(#mask0_4203_15673)">
<path fill-rule="evenodd" clip-rule="evenodd" d="M31.7046 9.3188L24.6456 2.354H9.3609L2.26562 9.37761V34.2409L9.3609 41.2651H24.6456L31.7046 34.3172V9.3188ZM9.52712 12.3915L12.3837 9.56601H21.6388L24.4943 12.3915V31.2184L21.6388 34.0438H12.3837L9.52712 31.2184V12.3915Z" fill="#292826"/>
<path fill-rule="evenodd" clip-rule="evenodd" d="M8.69751 0.507568L0.614258 8.50203V34.9727L8.64302 43.0162H25.3638L33.4426 35.0108V8.49876L25.4183 0.507568H8.69751ZM1.34024 34.646V8.82438L9.0239 1.23122L25.0853 1.23013L32.6407 8.72528L32.6638 34.7005L25.0319 42.2523L9.0239 42.2506L1.34024 34.646Z" fill="#292826"/>
</g>
<path fill-rule="evenodd" clip-rule="evenodd" d="M23.3535 12.8972L21.0863 10.6533H12.9051L10.6699 12.8646V30.7653L12.8567 32.9286H21.186L23.3535 30.7821V12.8972ZM13.2216 11.3764H20.8122L22.622 13.1662V30.481L20.8794 32.2044H13.1522L11.4366 30.5066V13.1428L13.2216 11.3764Z" fill="#292826"/>
<path fill-rule="evenodd" clip-rule="evenodd" d="M44.2871 32.1865H300.276V31.447H44.2871V32.1865Z" fill="#292826"/>
<path fill-rule="evenodd" clip-rule="evenodd" d="M54.4336 13.9989L54.1937 12.3545H51.1505V22.9915L52.772 23.2289V24.239H47.0059V23.2289L48.6274 22.9915V12.3545H45.5842L45.3442 13.9989H44.2627V10.9688H55.5152V13.9989H54.4336Z" fill="#292826"/>
<path fill-rule="evenodd" clip-rule="evenodd" d="M62.7821 24.2388V23.2881L64.2836 23.0501V19.4253H60.2794V23.0501L61.781 23.2881V24.2388H56.3154V23.2881L57.8775 23.0501V15.0284L56.3154 14.791V13.8403H61.781V14.791L60.2794 15.0284V18.1577H64.2836V15.0284L62.7821 14.791V13.8403H68.2477V14.791L66.6862 15.0284V23.0501L68.2477 23.2881V24.2388H62.7821Z" fill="#292826"/>
<path fill-rule="evenodd" clip-rule="evenodd" d="M78.4778 24.2388H69.4082V23.2881L70.9702 23.0501V15.0284L69.4082 14.791V13.8403H78.4778V16.5934H77.4568L77.2162 15.1079H73.3728V18.198H75.7753L76.0153 16.8705H76.9163V20.7131H76.0153L75.7753 19.3861H73.3728V22.9706H77.2162L77.4568 21.4852H78.4778V24.2388Z" fill="#292826"/>
<path fill-rule="evenodd" clip-rule="evenodd" d="M91.2507 12.1769C89.0282 12.1769 87.8872 13.9395 87.8872 17.5839C87.8872 21.2479 88.9886 23.0306 91.2105 23.0306C93.4336 23.0306 94.5741 21.2675 94.5741 17.6236C94.5741 13.9591 93.4732 12.1769 91.2507 12.1769ZM91.2303 24.4763C87.066 24.4763 85.2441 22.0205 85.2441 17.5637C85.2441 13.1276 87.0858 10.7307 91.2507 10.7307C95.4151 10.7307 97.2369 13.1864 97.2369 17.6432C97.2369 22.0799 95.3953 24.4763 91.2303 24.4763Z" fill="#292826"/>
<path fill-rule="evenodd" clip-rule="evenodd" d="M104.785 24.2388V23.2881L106.286 23.0501V19.4253H102.282V23.0501L103.784 23.2881V24.2388H98.3184V23.2881L99.8799 23.0501V15.0284L98.3184 14.791V13.8403H103.784V14.791L102.282 15.0284V18.1577H106.286V15.0284L104.785 14.791V13.8403H110.251V14.791L108.689 15.0284V23.0501L110.251 23.2881V24.2388H104.785Z" fill="#292826"/>
<path fill-rule="evenodd" clip-rule="evenodd" d="M111.552 24.2388V23.2881L113.113 23.0501V15.0284L111.552 14.791V13.8403H117.078V14.791L115.516 15.0284V23.0501L117.078 23.2881V24.2388H111.552Z" fill="#292826"/>
<path fill-rule="evenodd" clip-rule="evenodd" d="M123.023 15.0286C121.341 15.0286 120.441 16.2368 120.441 19.0296C120.441 21.842 121.302 23.0699 122.983 23.0699C124.665 23.0699 125.586 21.8622 125.586 19.0694C125.586 16.257 124.705 15.0286 123.023 15.0286ZM123.004 24.4371C119.459 24.4371 117.919 22.4758 117.919 19.0296C117.919 15.5834 119.479 13.6619 123.023 13.6619C126.567 13.6619 128.109 15.6232 128.109 19.0694C128.109 22.5156 126.548 24.4371 123.004 24.4371Z" fill="#292826"/>
<path fill-rule="evenodd" clip-rule="evenodd" d="M139.059 24.4763C136.736 24.4763 134.874 23.684 134.874 23.684V20.852H136.016L136.276 22.6745C136.276 22.6745 137.136 22.9707 138.658 22.9707C140.22 22.9707 141.622 22.4561 141.622 20.7725C141.622 19.2479 140.54 19.0296 139.219 18.5939C137.116 17.9008 134.894 17.3062 134.894 14.4546C134.894 12.1366 136.356 10.7307 139.419 10.7307C140.82 10.7307 142.282 11.0476 143.423 11.4832V14.1372H142.282L142.023 12.4339C142.023 12.4339 140.82 12.1769 139.659 12.1769C138.498 12.1769 137.297 12.5728 137.297 14.0979C137.297 17.4053 144.023 15.2267 144.023 20.5155C144.023 23.0105 142.382 24.4763 139.059 24.4763Z" fill="#292826"/>
<path fill-rule="evenodd" clip-rule="evenodd" d="M153.514 16.7121L153.273 15.1079H150.951V23.0501L152.512 23.2881V24.2388H146.987V23.2881L148.549 23.0501V15.1079H146.226L145.986 16.7121H144.965V13.8403H154.534V16.7121H153.514Z" fill="#292826"/>
<path fill-rule="evenodd" clip-rule="evenodd" d="M159.718 15.8403L158.196 19.9606H161.241L159.718 15.8403ZM160.96 24.2388V23.2881L162.461 23.0501L161.721 21.1689H157.716L156.975 23.0501L158.476 23.2881V24.2388H153.892V23.2881L155.393 23.0501L158.998 13.8403H161.301L164.904 23.0501L166.405 23.2881V24.2388H160.96Z" fill="#292826"/>
<path fill-rule="evenodd" clip-rule="evenodd" d="M174.314 16.7121L174.073 15.1079H171.75V23.0501L173.311 23.2881V24.2388H167.786V23.2881L169.348 23.0501V15.1079H167.025L166.785 16.7121H165.764V13.8403H175.334V16.7121H174.314Z" fill="#292826"/>
<path fill-rule="evenodd" clip-rule="evenodd" d="M185.323 24.2388H176.255V23.2881L177.817 23.0501V15.0284L176.255 14.791V13.8403H185.323V16.5934H184.302L184.062 15.1079H180.218V18.198H182.621L182.862 16.8705H183.762V20.7131H182.862L182.621 19.3861H180.218V22.9706H184.062L184.302 21.4852H185.323V24.2388Z" fill="#292826"/>
<path fill-rule="evenodd" clip-rule="evenodd" d="M203.602 12.2162V18.9899C203.602 21.2676 203.462 22.258 202.381 23.3274C201.6 24.0996 200.32 24.4764 198.416 24.4764C196.536 24.4764 195.134 23.9613 194.252 23.09C193.111 21.9613 193.231 20.2771 193.231 18.8118V12.2162L191.609 11.9788V10.9688H197.375V11.9788L195.753 12.2162V19.9804C195.753 22.1589 196.975 23.0307 198.857 23.0307C199.858 23.0307 200.678 22.8325 201.219 22.258C201.699 21.7631 201.961 20.9904 201.961 19.9804V12.2162L200.339 11.9788V10.9688H205.224V11.9788L203.602 12.2162Z" fill="#292826"/>
<path fill-rule="evenodd" clip-rule="evenodd" d="M216.235 15.0284V24.2388H214.353L209.007 16.8117V23.0501L210.569 23.2881V24.2388H205.863V23.2881L207.426 23.0501V15.0284L205.863 14.791V13.8403H209.528L214.653 20.9309V15.0284L213.092 14.791V13.8403H217.797V14.791L216.235 15.0284Z" fill="#292826"/>
<path fill-rule="evenodd" clip-rule="evenodd" d="M219.037 24.2388V23.2881L220.598 23.0501V15.0284L219.037 14.791V13.8403H224.563V14.791L223.002 15.0284V23.0501L224.563 23.2881V24.2388H219.037Z" fill="#292826"/>
<path fill-rule="evenodd" clip-rule="evenodd" d="M236.295 15.0284L232.791 24.2388H230.468L226.966 15.0284L225.464 14.791V13.8403H230.91V14.791L229.408 15.0284L232.071 22.1588L234.713 15.0284L233.211 14.791V13.8403H237.796V14.791L236.295 15.0284Z" fill="#292826"/>
<path fill-rule="evenodd" clip-rule="evenodd" d="M247.687 24.2388H238.617V23.2881L240.179 23.0501V15.0284L238.617 14.791V13.8403H247.687V16.5934H246.666L246.426 15.1079H242.581V18.198H244.984L245.224 16.8705H246.125V20.7131H245.224L244.984 19.3861H242.581V22.9706H246.426L246.666 21.4852H247.687V24.2388Z" fill="#292826"/>
<path fill-rule="evenodd" clip-rule="evenodd" d="M255.775 15.4248C255.374 15.0088 254.513 15.0486 253.972 15.0486H253.272V18.3755H253.692C254.372 18.3755 255.314 18.455 255.815 17.9007C256.134 17.5441 256.215 17.1286 256.215 16.6729C256.215 16.2171 256.115 15.7815 255.775 15.4248ZM256.895 24.2388L255.915 21.862C255.254 20.277 254.853 19.5446 253.452 19.5446H253.272V23.0501L254.773 23.2881V24.2388H249.308V23.2881L250.87 23.0501V15.0284L249.308 14.791V13.8403H254.613C255.695 13.8403 256.955 13.8997 257.777 14.6527C258.318 15.1477 258.617 15.8207 258.617 16.5934C258.617 17.8011 257.816 18.8901 256.714 19.2282C257.596 19.8811 258.357 22.0205 258.798 23.0501L260.3 23.2881V24.2388H256.895Z" fill="#292826"/>
<path fill-rule="evenodd" clip-rule="evenodd" d="M265.044 24.4371C263.082 24.4371 261.44 23.7832 261.44 23.7832V21.09H262.521L262.782 22.7927C262.782 22.7927 263.542 23.0105 264.724 23.0105C266.005 23.0105 266.987 22.5951 266.987 21.4658C266.987 20.6735 266.546 20.3963 265.885 20.1785C263.943 19.5246 261.461 19.248 261.461 16.6528C261.461 14.7912 262.762 13.6619 265.345 13.6619C266.526 13.6619 267.746 13.8998 268.808 14.2761V16.8505H267.727L267.467 15.2268C267.467 15.2268 266.586 15.0286 265.604 15.0286C264.624 15.0286 263.763 15.3656 263.763 16.3757C263.763 18.6931 269.308 17.1478 269.308 21.2675C269.308 23.2882 267.826 24.4371 265.044 24.4371Z" fill="#292826"/>
<path fill-rule="evenodd" clip-rule="evenodd" d="M270.71 24.2388V23.2881L272.272 23.0501V15.0284L270.71 14.791V13.8403H276.235V14.791L274.673 15.0284V23.0501L276.235 23.2881V24.2388H270.71Z" fill="#292826"/>
<path fill-rule="evenodd" clip-rule="evenodd" d="M285.925 16.7121L285.685 15.1079H283.363V23.0501L284.924 23.2881V24.2388H279.399V23.2881L280.96 23.0501V15.1079H278.638L278.397 16.7121H277.377V13.8403H286.946V16.7121H285.925Z" fill="#292826"/>
<path fill-rule="evenodd" clip-rule="evenodd" d="M297.997 15.0284L294.934 19.7232V23.0501L296.497 23.2881V24.2388H290.97V23.2881L292.532 23.0501V19.7232L289.43 15.0284L287.928 14.791V13.8403H293.493V14.791L291.991 15.0284L294.154 18.3957L296.297 15.0284L294.855 14.791V13.8403H299.499V14.791L297.997 15.0284Z" fill="#292826"/>
</g>
<defs>
<clipPath id="clip0_4203_15673">
<rect width="300" height="43.7838" fill="white"/>
</clipPath>
</defs>
</svg>
