<svg width="28" height="24" viewBox="0 0 28 24" fill="none" xmlns="http://www.w3.org/2000/svg">
<path fill-rule="evenodd" clip-rule="evenodd" d="M8.79552 23.4395C19.3613 23.4395 25.1429 14.6776 25.1429 7.09217C25.1429 6.84567 25.1429 6.59917 25.1317 6.35267C26.2521 5.54595 27.2269 4.52634 28 3.37228C26.9692 3.83166 25.8599 4.13418 24.6947 4.27984C25.8824 3.57396 26.7899 2.44231 27.2269 1.09777C26.1176 1.75883 24.8852 2.22942 23.5742 2.48712C22.521 1.36667 21.0308 0.671997 19.3838 0.671997C16.2129 0.671997 13.6359 3.24903 13.6359 6.4199C13.6359 6.86808 13.6919 7.30505 13.7815 7.73082C9.0084 7.49553 4.77311 5.19861 1.93838 1.72522C1.44538 2.57676 1.16527 3.56275 1.16527 4.61597C1.16527 6.61037 2.18487 8.36948 3.71989 9.40029C2.77871 9.36668 1.89356 9.10897 1.12045 8.6832C1.12045 8.70561 1.12045 8.72802 1.12045 8.76163C1.12045 11.5403 3.10364 13.8709 5.72549 14.3975C5.2437 14.5319 4.7395 14.5992 4.21288 14.5992C3.84314 14.5992 3.48459 14.5656 3.13725 14.4983C3.86555 16.784 5.9944 18.4423 8.5042 18.4871C6.53221 20.0333 4.05602 20.9521 1.36695 20.9521C0.907563 20.9521 0.448179 20.9297 0 20.8737C2.53221 22.4871 5.55742 23.4395 8.79552 23.4395Z" fill="#212325"/>
</svg>
