<svg width="34" height="24" viewBox="0 0 34 24" fill="none" xmlns="http://www.w3.org/2000/svg">
<path fill-rule="evenodd" clip-rule="evenodd" d="M29.7809 1.05432C31.1817 1.43872 32.285 2.57135 32.6594 4.0097C33.3397 6.61653 33.3397 12.0557 33.3397 12.0557C33.3397 12.0557 33.3397 17.4947 32.6594 20.1017C32.285 21.5401 31.1817 22.6727 29.7809 23.0573C27.2422 23.7557 17.0615 23.7557 17.0615 23.7557C17.0615 23.7557 6.88071 23.7557 4.34185 23.0573C2.941 22.6727 1.83778 21.5401 1.46338 20.1017C0.783203 17.4947 0.783203 12.0557 0.783203 12.0557C0.783203 12.0557 0.783203 6.61653 1.46338 4.0097C1.83778 2.57135 2.941 1.43872 4.34185 1.05432C6.88071 0.355713 17.0615 0.355713 17.0615 0.355713C17.0615 0.355713 27.2422 0.355713 29.7809 1.05432ZM13.793 7.83313V18.007L21.9321 12.9203L13.793 7.83313Z" fill="#212325"/>
</svg>
